<svg xmlns="http://www.w3.org/2000/svg" xmlns:xlink="http://www.w3.org/1999/xlink"><symbol id="icon-check" viewBox="0 0 16 12">
<path fill-rule="evenodd" clip-rule="evenodd" d="M5.77772 11.5557L0.222168 6.21381L1.77772 4.71808L5.77772 8.56424L14.2222 0.44458L15.7777 1.94031L5.77772 11.5557Z" fill="#FFFFFF"/>
</symbol><symbol id="icon-clip" viewBox="0 0 20 20">
<path d="M17.1784 7.82382L9.04692 15.865C7.6996 17.1975 5.51494 17.1975 4.16761 15.865C2.82028 14.5325 2.82028 12.3724 4.16761 11.0399L11.4863 3.80296C12.3847 2.91482 13.8406 2.91482 14.739 3.80296C15.6374 4.69108 15.6374 6.13154 14.739 7.01966L7.4203 14.2567C6.97138 14.701 6.24316 14.701 5.79367 14.2567C5.34475 13.8129 5.34475 13.0927 5.79367 12.6483L12.2991 6.21547L11.4857 5.41131L4.98094 11.8447C4.08253 12.7329 4.08253 14.1733 4.98094 15.0614C5.87935 15.9495 7.33521 15.9495 8.23362 15.0614L15.5523 7.8244C16.8997 6.49193 16.8997 4.33185 15.5523 2.99935C14.205 1.66688 12.0204 1.66688 10.673 2.99935L2.94765 10.6384L2.97564 10.6664C1.57232 12.4507 1.69569 15.03 3.35431 16.6697C5.01293 18.3095 7.62021 18.4323 9.42502 17.0438L9.45301 17.0718L17.9911 8.62856L17.1784 7.82382Z" fill="#6A3F24"/>
</symbol><symbol id="icon-close" viewBox="0 0 20 20"><path d="M.293 18.291a1 1 0 101.414 1.414L10 11.413l8.292 8.292a1 1 0 101.414-1.414l-8.292-8.292 8.292-8.292A1 1 0 1018.291.293L9.999 8.585 1.707.293A1 1 0 10.293 1.707L8.585 10 .293 18.291z"/></symbol></svg>