<svg width="180" height="36" viewBox="0 0 180 36" fill="none" xmlns="http://www.w3.org/2000/svg">
<path d="M1.56315 2.90933C1.56315 4.12366 2.44526 4.80673 3.42817 4.80673C4.41109 4.80673 5.3436 4.14896 5.3436 2.90933C5.3436 2.15037 5.3436 1.39141 5.3436 0.632446H0.0761719V1.77089H1.56315V2.90933ZM2.52087 1.77089H4.33548C4.33548 2.15037 4.33548 2.52985 4.33548 2.93462C4.33548 3.4406 3.93223 3.74418 3.42817 3.74418C2.92411 3.74418 2.49566 3.4153 2.49566 2.93462V1.77089H2.52087Z" fill="#6A3F24"/>
<path d="M1.9916 8.82923C2.29404 9.4364 2.87371 9.79058 3.52899 9.79058C4.4615 9.79058 5.3436 9.13282 5.3436 7.91848C5.3436 7.15952 5.3436 6.40056 5.3436 5.6416H0.0761719V6.78004H1.81518V7.74139L0.0761719 8.82923V10.0436H0.22739L1.9916 8.82923ZM2.74769 6.75474H4.36069V7.89318C4.36069 8.37386 4.00784 8.67744 3.55419 8.67744C3.10053 8.67744 2.72249 8.37386 2.72249 7.89318V6.75474H2.74769Z" fill="#6A3F24"/>
<path d="M1.08429 12.0169H2.29404V13.9902H3.27696V12.0169H4.33548V14.1419H5.3184V10.8784H0.0761719V14.1925H1.08429V12.0169Z" fill="#6A3F24"/>
<path d="M0.0761719 16.3682H2.92411L1.26071 17.709V17.8355L2.92411 19.1763H0.0761719V20.3148H5.3436V19.91L2.8485 17.7849L5.3436 15.6345V15.2297H0.0761719V16.3682Z" fill="#6A3F24"/>
<path d="M0.958278 23.1735H4.4615V23.8566H5.3184V21.352H4.4615V22.0351H0.958278V21.2761H0.0761719V23.9325H0.958278V23.1735Z" fill="#6A3F24"/>
<path d="M1.81462 29.0682H5.31784V27.9297H1.83982C1.28535 27.9297 0.982918 27.4744 0.982918 26.9431C0.982918 26.4118 1.26015 25.9564 1.83982 25.9564H5.31784V24.818H1.81462C0.630076 24.818 0 25.8299 0 26.9431C0 28.1068 0.630076 29.0682 1.81462 29.0682Z" fill="#6A3F24"/>
<path d="M0.0761719 31.3956H2.92411L1.26071 32.7365V32.8883L2.92411 34.2291H0.0761719V35.3675H5.3436V34.9627L2.8485 32.8124L5.3436 30.6873V30.2572H0.0761719V31.3956Z" fill="#6A3F24"/>
<path d="M26.337 14.8503C22.7833 14.4455 19.8094 13.7625 19.8094 10.7013C19.8094 8.04498 22.6825 6.45116 25.6061 6.45116C28.5296 6.45116 31.4028 7.6402 31.7808 10.4484H38.5856C38.5856 2.70696 31.9572 0 25.6061 0C18.8517 0 12.6769 3.21293 12.6769 10.8531C12.6769 18.0127 18.9021 20.1377 25.0768 20.669C28.328 20.922 32.5117 21.2509 32.5117 25.1975C32.5117 28.7899 29.0085 29.5488 25.9841 29.5488C22.6825 29.5488 19.2801 28.208 19.1289 25.071H12.1729C12.1729 32.61 19.2297 36.0253 26.0345 36.0253C32.7385 35.8735 39.6946 33.3689 39.6946 25.2228C39.7198 17.1272 33.545 15.4828 26.337 14.8503Z" fill="#6A3F24"/>
<path d="M53.733 6.45114H58.1687V0.733643H42.0136V6.45114H46.4493V29.397H41.6104V35.2663H58.5468V29.397H53.733V6.45114Z" fill="#6A3F24"/>
<path d="M89.0674 12.5228C89.0674 6.40051 84.8333 0.68301 77.0456 0.68301C72.1814 0.632413 67.3676 0.68301 62.5034 0.68301V35.2157H69.8123V23.8313H75.8862L82.8927 35.2157H90.6804V34.1784L82.9935 22.6928C86.8747 20.7701 89.0674 16.9248 89.0674 12.5228ZM76.9952 17.7596H69.6863V7.15947H76.9952C80.1203 7.15947 82.0106 9.48695 82.0106 12.3963C82.061 15.3309 80.0699 17.7596 76.9952 17.7596Z" fill="#6A3F24"/>
<path d="M104.189 6.45114H108.625V0.733643H92.4697V6.45114H96.9054V29.397H92.0664V35.2663H109.003V29.397H104.189V6.45114Z" fill="#6A3F24"/>
<path d="M132.517 23.6289C132.517 27.3225 129.594 29.1946 126.242 29.1946C122.89 29.1946 119.916 27.3225 119.916 23.6289V0.733643H112.607V23.7807C112.607 31.5221 119.034 35.7217 126.242 35.7217C133.45 35.7217 139.725 31.5221 139.725 23.7807V0.733643H132.517V23.6289Z" fill="#6A3F24"/>
<path d="M157.317 14.8503C153.764 14.4455 150.79 13.7625 150.79 10.7013C150.79 8.04498 153.663 6.45116 156.587 6.45116C159.51 6.45116 162.383 7.6402 162.761 10.4484H169.566C169.566 2.70696 162.938 0 156.587 0C149.832 0 143.657 3.21293 143.657 10.8531C143.657 18.0127 149.883 20.1377 156.057 20.669C159.308 20.922 163.492 21.2509 163.492 25.1975C163.492 28.7899 159.989 29.5488 156.965 29.5488C153.663 29.5488 150.261 28.208 150.109 25.071H143.153C143.153 32.61 150.21 36.0253 157.015 36.0253C163.719 35.8735 170.675 33.3689 170.675 25.2228C170.7 17.1272 164.525 15.4828 157.317 14.8503Z" fill="#6A3F24"/>
<path d="M172.489 5.26207C172.489 10.3977 180.025 10.3724 180.025 5.26207C180 0.151739 172.489 0.151739 172.489 5.26207ZM173.598 5.26207C173.598 1.44197 178.891 1.44197 178.891 5.26207C178.916 9.08217 173.598 9.08217 173.598 5.26207Z" fill="#6A3F24"/>
<path d="M177.858 4.70549C177.858 3.89593 177.278 3.44055 176.522 3.44055H174.934V7.05826H175.841V5.86922H176.295L177.001 7.05826H177.933V6.88117L177.177 5.74273C177.631 5.59094 177.858 5.16086 177.858 4.70549ZM176.421 5.13556H175.841V4.25011H176.421C176.749 4.25011 176.925 4.4272 176.925 4.70549C176.95 4.93317 176.723 5.13556 176.421 5.13556Z" fill="#6A3F24"/>
</svg>
