<svg width="40" height="29" viewBox="0 0 40 29" fill="none" xmlns="http://www.w3.org/2000/svg">
<path d="M36.9857 24.1461H3.01434C2.83601 24.1461 2.74685 24.057 2.65768 23.9678C2.56852 23.8786 2.56852 23.7003 2.56852 23.522L5.68925 8.89911C5.95674 7.82914 6.84838 7.11583 7.91835 7.11583H31.9926C33.0625 7.11583 33.9542 7.82914 34.2217 8.89911L37.5207 23.522C37.5207 23.7003 37.5207 23.7895 37.4316 23.9678C37.3424 24.057 37.1641 24.1461 36.9857 24.1461ZM3.63848 23.1653H36.4508L33.33 9.1666C33.1517 8.54245 32.6167 8.09663 31.9926 8.09663H8.00751C7.38336 8.09663 6.93754 8.54245 6.75922 9.07743L3.63848 23.1653Z" fill="url(#paint0_linear_1253_37733)"/>
<path fill-rule="evenodd" clip-rule="evenodd" d="M5.93303 8.95568L2.81875 23.5483C2.8189 23.6291 2.82 23.6914 2.82736 23.7429C2.83212 23.7762 2.83785 23.7914 2.8398 23.796C2.88423 23.8403 2.90713 23.8613 2.93131 23.8758C2.94898 23.8864 2.97149 23.8959 3.01434 23.8959H36.9858C37.0347 23.8959 37.0902 23.8833 37.1435 23.8604C37.1787 23.8453 37.2073 23.8282 37.228 23.8131C37.2492 23.765 37.258 23.7324 37.2628 23.7037C37.2691 23.6656 37.2703 23.6254 37.2705 23.5497L33.9783 8.95713C33.7366 7.99516 32.9419 7.36605 31.9926 7.36605H7.91835C6.96952 7.36605 6.17513 7.99453 5.93303 8.95568ZM5.44651 8.83842C5.74062 7.66196 6.72859 6.86561 7.91835 6.86561H31.9926C33.1823 6.86561 34.1703 7.66196 34.4644 8.83842L34.4658 8.84402L37.7709 23.4941V23.5318C37.771 23.6131 37.771 23.6984 37.7564 23.786C37.7402 23.8834 37.7081 23.9743 37.6554 24.0797L37.6372 24.116L37.6085 24.1447C37.4756 24.2776 37.2348 24.3963 36.9858 24.3963H3.01434C2.73201 24.3963 2.57901 24.2431 2.48658 24.1505L2.48075 24.1447C2.37844 24.0424 2.34565 23.9095 2.33196 23.8137C2.31827 23.7178 2.31828 23.6135 2.3183 23.5302L2.3183 23.4956L5.44651 8.83842ZM6.52184 8.99831C6.72392 8.39207 7.24632 7.84642 8.00751 7.84642H31.9926C32.7424 7.84642 33.3656 8.38037 33.5706 9.09786L33.5727 9.10495L36.7629 23.4155H3.32677L6.51773 9.01063L6.52184 8.99831ZM7.00059 9.14473L3.95019 22.9151H36.1386L33.0875 9.22856C32.934 8.70149 32.4889 8.34685 31.9926 8.34685H8.00751C7.52456 8.34685 7.15747 8.68696 7.00059 9.14473Z" fill="url(#paint1_linear_1253_37733)"/>
<path d="M37.2532 28.1585H2.7468C1.32018 28.1585 0.250216 26.9994 0.250216 25.6619C0.250216 24.2353 1.40935 23.1653 2.7468 23.1653H37.2532C38.6798 23.1653 39.7498 24.3244 39.7498 25.6619C39.7498 26.9994 38.6798 28.1585 37.2532 28.1585ZM2.7468 24.1461C1.94433 24.1461 1.23102 24.8594 1.23102 25.6619C1.23102 26.4644 1.94433 27.1777 2.7468 27.1777H37.2532C38.0557 27.1777 38.769 26.4644 38.769 25.6619C38.769 24.8594 38.0557 24.1461 37.2532 24.1461H2.7468Z" fill="url(#paint2_linear_1253_37733)"/>
<path fill-rule="evenodd" clip-rule="evenodd" d="M2.7468 23.4155C1.54168 23.4155 0.500432 24.3793 0.500432 25.6619C0.500432 26.867 1.46416 27.9083 2.7468 27.9083H37.2532C38.5358 27.9083 39.4996 26.867 39.4996 25.6619C39.4996 24.4568 38.5358 23.4155 37.2532 23.4155H2.7468ZM0 25.6619C0 24.0913 1.27702 22.9151 2.7468 22.9151H37.2532C38.8238 22.9151 40 24.1921 40 25.6619C40 27.1317 38.8238 28.4087 37.2532 28.4087H2.7468C1.1762 28.4087 0 27.1317 0 25.6619ZM0.980802 25.6619C0.980802 24.7212 1.80614 23.8959 2.7468 23.8959H37.2532C38.1939 23.8959 39.0192 24.7212 39.0192 25.6619C39.0192 26.6026 38.1939 27.4279 37.2532 27.4279H2.7468C1.80614 27.4279 0.980802 26.6026 0.980802 25.6619ZM2.7468 24.3963C2.08252 24.3963 1.48123 24.9976 1.48123 25.6619C1.48123 26.3262 2.08252 26.9275 2.7468 26.9275H37.2532C37.9175 26.9275 38.5188 26.3262 38.5188 25.6619C38.5188 24.9976 37.9175 24.3963 37.2532 24.3963H2.7468Z" fill="url(#paint3_linear_1253_37733)"/>
<path d="M28.0694 20.3121C26.7319 20.3121 25.5728 19.3313 25.3945 18.083H14.6948C14.4273 19.3313 13.3573 20.3121 12.0199 20.3121C10.5041 20.3121 9.2558 19.0638 9.2558 17.548C9.2558 16.8347 9.61246 16.1214 10.1474 15.5864C9.61246 15.0514 9.2558 14.3381 9.2558 13.6248C9.2558 12.109 10.5041 10.8607 12.0199 10.8607C13.3573 10.8607 14.5165 11.8415 14.6948 13.0898H25.3945C25.6619 11.8415 26.7319 10.8607 28.0694 10.8607C29.5852 10.8607 30.8334 12.109 30.8334 13.6248C30.8334 14.3381 30.4768 15.0514 29.9418 15.5864C30.4768 16.1214 30.8334 16.8347 30.8334 17.548C30.7443 19.0638 29.496 20.3121 28.0694 20.3121ZM14.1598 17.013H25.7511C26.0186 17.013 26.2861 17.2805 26.2861 17.548V17.6372C26.2861 18.5288 27.0886 19.3313 27.9802 19.3313C28.961 19.3313 29.6743 18.5288 29.6743 17.6372C29.6743 17.013 29.3177 16.3889 28.7827 16.1214C28.6043 16.0322 28.5152 15.8539 28.5152 15.6756C28.5152 15.4972 28.6043 15.3189 28.7827 15.2297C29.3177 14.9622 29.6743 14.3381 29.6743 13.714C29.6743 12.7331 28.8718 12.0198 27.9802 12.0198C26.9994 12.0198 26.2861 12.8223 26.2861 13.714C26.2861 13.9814 26.0186 14.2489 25.7511 14.2489H14.1598C13.8923 14.2489 13.6248 13.9814 13.6248 13.714V13.6248C13.6248 12.7332 12.8224 11.9307 11.9307 11.9307C10.9499 11.9307 10.2366 12.7332 10.2366 13.6248C10.2366 14.2489 10.5933 14.8731 11.1282 15.1406C11.3066 15.2297 11.3957 15.4081 11.3957 15.5864C11.3957 15.7647 11.3066 15.943 11.1282 16.0322C10.5933 16.2997 10.2366 16.9238 10.2366 17.548C10.2366 18.5288 11.0391 19.2421 11.9307 19.2421C12.9115 19.2421 13.6248 18.4396 13.6248 17.548C13.714 17.2805 13.8923 17.013 14.1598 17.013Z" fill="url(#paint4_linear_1253_37733)"/>
<path fill-rule="evenodd" clip-rule="evenodd" d="M12.0199 11.1109C10.6423 11.1109 9.50602 12.2472 9.50602 13.6248C9.50602 14.2567 9.8245 14.9096 10.3244 15.4095L10.5013 15.5864L10.3244 15.7633C9.8245 16.2632 9.50602 16.9161 9.50602 17.548C9.50602 18.9256 10.6423 20.0619 12.0199 20.0619C13.2272 20.0619 14.2047 19.1758 14.4501 18.0306L14.4925 17.8328H25.6115L25.6422 18.0476C25.8018 19.1651 26.8487 20.0619 28.0694 20.0619C29.348 20.0619 30.4974 18.9345 30.5832 17.5407C30.5808 16.911 30.2628 16.2613 29.7649 15.7633L29.5879 15.5864L29.7649 15.4095C30.2647 14.9096 30.5832 14.2567 30.5832 13.6248C30.5832 12.2472 29.447 11.1109 28.0694 11.1109C26.862 11.1109 25.8845 11.997 25.6391 13.1422L25.5967 13.34H14.4778L14.4471 13.1252C14.2875 12.0077 13.2406 11.1109 12.0199 11.1109ZM9.00559 13.6248C9.00559 11.9708 10.3659 10.6105 12.0199 10.6105C13.3976 10.6105 14.6113 11.5663 14.9026 12.8396H25.1989C25.5547 11.5826 26.6742 10.6105 28.0694 10.6105C29.7233 10.6105 31.0837 11.9708 31.0837 13.6248C31.0837 14.34 30.7638 15.0383 30.2843 15.5864C30.7638 16.1345 31.0837 16.8328 31.0837 17.548V17.5553L31.0832 17.5627C30.9871 19.1971 29.6417 20.5623 28.0694 20.5623C26.6916 20.5623 25.478 19.6065 25.1866 18.3332H14.8903C14.5345 19.5902 13.4151 20.5623 12.0199 20.5623C10.3659 20.5623 9.00559 19.202 9.00559 17.548C9.00559 16.8328 9.32541 16.1345 9.80498 15.5864C9.32541 15.0383 9.00559 14.34 9.00559 13.6248ZM9.98639 13.6248C9.98639 12.6036 10.8032 11.6805 11.9307 11.6805C12.9605 11.6805 13.875 12.595 13.875 13.6248V13.714C13.875 13.7663 13.9037 13.8396 13.9689 13.9048C14.0341 13.97 14.1074 13.9987 14.1598 13.9987H25.7511C25.8035 13.9987 25.8768 13.97 25.942 13.9048C26.0072 13.8396 26.0359 13.7663 26.0359 13.714C26.0359 12.6928 26.8527 11.7696 27.9802 11.7696C29.0014 11.7696 29.9245 12.5865 29.9245 13.714C29.9245 14.4227 29.5231 15.1393 28.8946 15.4535C28.8128 15.4944 28.7654 15.5781 28.7654 15.6756C28.7654 15.773 28.8128 15.8567 28.8946 15.8976C29.5231 16.2118 29.9245 16.9284 29.9245 17.6372C29.9245 18.6583 29.1077 19.5815 27.9802 19.5815C26.9504 19.5815 26.0359 18.667 26.0359 17.6372V17.548C26.0359 17.4956 26.0072 17.4223 25.942 17.3571C25.8768 17.2919 25.8035 17.2632 25.7511 17.2632H14.1598C14.1184 17.2632 14.0701 17.2816 14.0125 17.3464C13.9591 17.4064 13.9112 17.493 13.8745 17.592C13.8515 18.5956 13.042 19.4923 11.9307 19.4923C10.9095 19.4923 9.98639 18.6755 9.98639 17.548C9.98639 16.8393 10.3878 16.1227 11.0163 15.8084C11.0982 15.7675 11.1455 15.6838 11.1455 15.5864C11.1455 15.489 11.0982 15.4053 11.0163 15.3644C10.3878 15.0501 9.98639 14.3335 9.98639 13.6248ZM11.9307 12.1809C11.0966 12.1809 10.4868 12.8627 10.4868 13.6248C10.4868 14.1644 10.7987 14.696 11.2401 14.9168C11.515 15.0542 11.646 15.3272 11.646 15.5864C11.646 15.8456 11.515 16.1186 11.2401 16.256C10.7987 16.4767 10.4868 17.0084 10.4868 17.548C10.4868 18.3821 11.1686 18.9919 11.9307 18.9919C12.7648 18.9919 13.3746 18.3101 13.3746 17.548V17.5074L13.3875 17.4689C13.4388 17.315 13.5197 17.1476 13.6384 17.014C13.7592 16.8781 13.9337 16.7628 14.1598 16.7628H25.7511C25.9662 16.7628 26.1604 16.8678 26.2958 17.0033C26.4313 17.1387 26.5363 17.3329 26.5363 17.548V17.6372C26.5363 18.3906 27.2268 19.0811 27.9802 19.0811C28.8143 19.0811 29.4241 18.3993 29.4241 17.6372C29.4241 17.0976 29.1122 16.5659 28.6708 16.3452C28.3959 16.2078 28.265 15.9348 28.265 15.6756C28.265 15.4163 28.3959 15.1434 28.6708 15.0059C29.1122 14.7852 29.4241 14.2535 29.4241 13.714C29.4241 12.8798 28.7423 12.2701 27.9802 12.2701C27.1461 12.2701 26.5363 12.9518 26.5363 13.714C26.5363 13.9291 26.4313 14.1233 26.2958 14.2587C26.1604 14.3941 25.9662 14.4992 25.7511 14.4992H14.1598C13.9447 14.4992 13.7505 14.3941 13.6151 14.2587C13.4797 14.1233 13.3746 13.9291 13.3746 13.714V13.6248C13.3746 12.8713 12.6842 12.1809 11.9307 12.1809Z" fill="url(#paint5_linear_1253_37733)"/>
<path d="M31.9034 8.09663H8.09667C7.91835 8.09663 7.74002 8.00747 7.65086 7.82914C7.56169 7.65081 7.56169 7.47248 7.65086 7.29416C10.1474 2.92513 14.8731 0.250216 20.0446 0.250216C25.2161 0.250216 29.9418 2.92513 32.4384 7.29416C32.5276 7.47248 32.5276 7.65081 32.4384 7.82914C32.2601 8.00747 32.0817 8.09663 31.9034 8.09663ZM8.98831 7.11583H31.0118C28.6044 3.54928 24.4137 1.32018 20.0446 1.32018C15.6756 1.32018 11.3957 3.46011 8.98831 7.11583Z" fill="url(#paint6_linear_1253_37733)"/>
<path fill-rule="evenodd" clip-rule="evenodd" d="M7.87188 7.41169C7.82073 7.51728 7.82165 7.61124 7.87466 7.71724C7.91557 7.79906 7.99925 7.84642 8.09667 7.84642H31.9034C31.9858 7.84642 32.0941 7.80907 32.2304 7.68223C32.2672 7.59016 32.2628 7.50551 32.2174 7.41169C29.7661 3.12768 25.1274 0.500432 20.0446 0.500432C14.9618 0.500432 10.3231 3.12768 7.87188 7.41169ZM7.43361 7.17002C9.97654 2.71988 14.787 0 20.0446 0C25.3022 0 30.1127 2.71988 32.6556 7.17002L32.6625 7.18208C32.7869 7.43085 32.7866 7.69227 32.6622 7.94104L32.644 7.97736L32.6153 8.00607C32.4097 8.21167 32.1715 8.34685 31.9034 8.34685H8.09667C7.83745 8.34685 7.56447 8.21587 7.42705 7.94104C7.30267 7.69227 7.30267 7.43103 7.42705 7.18226L7.43361 7.17002ZM8.77934 6.97821C11.2365 3.247 15.5979 1.06997 20.0446 1.06997C24.4962 1.06997 28.7649 3.33986 31.2192 6.97584L31.4826 7.36605H8.52394L8.77934 6.97821ZM9.46397 6.86561H30.5298C28.1332 3.59668 24.1694 1.5704 20.0446 1.5704C15.9107 1.5704 11.863 3.52185 9.46397 6.86561Z" fill="url(#paint7_linear_1253_37733)"/>
<path d="M18.618 4.70841C18.083 4.70841 17.548 4.44092 17.2805 3.90593C17.1913 3.63844 17.2805 3.37095 17.548 3.19262C17.8155 3.10346 18.083 3.19262 18.2613 3.46011C18.2613 3.63844 18.5288 3.72761 18.7963 3.63844C18.8855 3.54928 18.9746 3.46011 19.0638 3.37095C19.0638 3.28179 19.0638 3.10346 19.0638 3.01429C18.9746 2.7468 19.0638 2.47931 19.3313 2.30098C19.5988 2.21182 19.8663 2.30098 20.0446 2.56848C20.2229 2.92513 20.2229 3.37095 20.1337 3.7276C20.0446 4.08426 19.7771 4.44092 19.4204 4.61924C19.0638 4.61924 18.7963 4.70841 18.618 4.70841Z" fill="url(#paint8_linear_1253_37733)"/>
<path fill-rule="evenodd" clip-rule="evenodd" d="M19.4417 2.5292C19.2859 2.64595 19.2529 2.7903 19.3012 2.93517L19.314 2.97369V3.47459L18.9314 3.85714L18.8754 3.87582C18.698 3.93497 18.5082 3.93991 18.3494 3.88696C18.2171 3.84288 18.0625 3.73698 18.0215 3.55558C17.9154 3.42332 17.7879 3.38831 17.6584 3.42083C17.5083 3.53332 17.4722 3.67142 17.5129 3.81092C17.7349 4.2383 18.1697 4.45819 18.618 4.45819C18.6687 4.45819 18.7316 4.44749 18.8351 4.42987C18.8583 4.42592 18.8836 4.42162 18.9112 4.41701C19.0343 4.39649 19.1843 4.37445 19.3562 4.36988C19.621 4.21843 19.8227 3.94016 19.891 3.66692C19.9693 3.35355 19.9646 2.98028 19.8278 2.69468C19.7174 2.53719 19.5807 2.49428 19.4417 2.5292ZM19.2521 2.06361C19.6339 1.93637 20.0162 2.07475 20.2528 2.42968L20.2614 2.44264L20.2684 2.45658C20.4814 2.88253 20.4752 3.39361 20.3765 3.78829C20.2705 4.21217 19.9576 4.63041 19.5323 4.84304L19.4795 4.86946H19.4204C19.2628 4.86946 19.1228 4.88909 18.9935 4.91064C18.9746 4.91377 18.9551 4.91715 18.9352 4.9206C18.8315 4.93855 18.7155 4.95862 18.618 4.95862C18.0021 4.95862 17.3724 4.64932 17.0567 4.01783L17.0487 4.00193L17.0431 3.98506C16.9159 3.60334 17.0543 3.22105 17.4092 2.98443L17.4371 2.96584L17.4689 2.95525C17.8506 2.82801 18.2329 2.96639 18.4695 3.32132L18.5115 3.38435V3.41346C18.5456 3.4238 18.6007 3.42828 18.666 3.41484L18.8136 3.26731V3.0522C18.7095 2.68452 18.8505 2.3208 19.1925 2.09279L19.2204 2.0742L19.2521 2.06361Z" fill="url(#paint9_linear_1253_37733)"/>
<path d="M13.0898 6.22419C12.9115 6.22419 12.7332 6.22419 12.644 6.13503C12.2874 6.04586 11.9307 5.77837 11.7524 5.42172C11.6632 5.15423 11.7524 4.88673 12.0199 4.70841C12.2874 4.61924 12.5548 4.70841 12.7332 4.9759C12.8223 5.06506 12.9115 5.15423 13.0007 5.24339C13.0898 5.24339 13.2682 5.24339 13.3573 5.24339C13.6248 5.15423 13.714 4.79757 13.5356 4.61924C13.4465 4.35175 13.5356 4.08426 13.8031 3.90593C14.0706 3.81677 14.3381 3.90593 14.5164 4.17342C14.8731 4.88673 14.6056 5.77837 13.8031 6.22419C13.5356 6.22419 13.3573 6.22419 13.0898 6.22419Z" fill="url(#paint10_linear_1253_37733)"/>
<path fill-rule="evenodd" clip-rule="evenodd" d="M13.9136 4.13415C13.7729 4.23953 13.7323 4.36741 13.7613 4.49785C13.884 4.65817 13.901 4.86223 13.8551 5.03059C13.803 5.22157 13.661 5.40593 13.4364 5.48077L13.3979 5.49361H12.897L12.5387 5.13531L12.525 5.11469C12.4131 4.94691 12.2729 4.90079 12.1303 4.93662C11.9803 5.04905 11.9441 5.18707 11.9847 5.3265C12.1316 5.60642 12.4209 5.82133 12.7047 5.89228L12.7719 5.90909L12.8157 5.9529C12.8204 5.95485 12.8355 5.96058 12.8689 5.96534C12.9258 5.97348 12.996 5.97398 13.0898 5.97398H13.7359C14.3811 5.5834 14.5739 4.86666 14.2998 4.29979C14.1893 4.14217 14.0526 4.09922 13.9136 4.13415ZM13.724 3.66856C14.1057 3.54132 14.488 3.6797 14.7246 4.03463L14.7333 4.04759L14.7402 4.06152C15.1612 4.90353 14.8354 5.93697 13.9247 6.44292L13.868 6.47441H13.0898C13.0871 6.47441 13.0844 6.47441 13.0816 6.47441C12.9983 6.47442 12.894 6.47444 12.7981 6.46075C12.7203 6.44964 12.6181 6.42593 12.5276 6.36265C12.1232 6.24414 11.7319 5.94024 11.5286 5.53362L11.5206 5.51771L11.515 5.50084C11.3878 5.11913 11.5261 4.73683 11.8811 4.50021L11.9089 4.48163L11.9407 4.47103C12.3146 4.34642 12.6889 4.47657 12.9265 4.81538L13.1043 4.99317H13.305C13.3357 4.97401 13.3607 4.94124 13.3723 4.89892C13.3877 4.84223 13.3705 4.80799 13.3587 4.79617L13.3169 4.75441L13.2983 4.69837C13.171 4.31665 13.3094 3.93436 13.6643 3.69774L13.6922 3.67915L13.724 3.66856Z" fill="url(#paint11_linear_1253_37733)"/>
<path d="M25.1269 6.22419C24.6811 6.22419 24.2353 6.04586 23.9678 5.68921C23.4328 5.06506 23.522 4.08426 24.1461 3.54928C24.4136 3.46011 24.7703 3.46011 24.9486 3.63844C25.1269 3.81677 25.1269 4.17342 24.8594 4.35175C24.6811 4.53008 24.5919 4.79757 24.7703 5.06506C24.9486 5.24339 25.2161 5.33255 25.4836 5.15423C25.6619 4.9759 26.0186 4.9759 26.1969 5.24339C26.3752 5.42172 26.3752 5.77837 26.1077 5.9567C25.8402 6.13503 25.4836 6.22419 25.1269 6.22419Z" fill="url(#paint12_linear_1253_37733)"/>
<path fill-rule="evenodd" clip-rule="evenodd" d="M24.2715 3.7727C23.7834 4.227 23.7262 5.02286 24.1578 5.52637L24.1631 5.53256L24.168 5.53908C24.3785 5.8198 24.7421 5.97398 25.1269 5.97398C25.4465 5.97398 25.7517 5.89333 25.9689 5.74851C26.0983 5.66228 26.0925 5.49282 26.02 5.42032L26.0024 5.4028L25.9887 5.38219C25.9025 5.25284 25.733 5.25865 25.6605 5.33116L25.643 5.34868L25.6224 5.36242C25.4363 5.48643 25.2371 5.52382 25.0487 5.48957C24.8659 5.45633 24.7104 5.35911 24.5933 5.24199L24.5758 5.22447L24.5621 5.20386C24.4381 5.01784 24.4007 4.81856 24.4349 4.63021C24.4682 4.44741 24.5654 4.29194 24.6825 4.17482L24.7 4.1573L24.7206 4.14356C24.85 4.05733 24.8442 3.88787 24.7717 3.81537C24.7406 3.78435 24.674 3.75168 24.5616 3.74303C24.4685 3.73587 24.3652 3.74729 24.2715 3.7727ZM24.6 3.24407C24.7773 3.25771 24.9782 3.31421 25.1255 3.46151C25.4039 3.73988 25.404 4.26747 25.0225 4.54309C24.9696 4.60036 24.9377 4.66219 24.9273 4.71973C24.9178 4.77168 24.923 4.83312 24.9654 4.90549C25.0216 4.95629 25.082 4.98698 25.1382 4.99721C25.1913 5.00686 25.2543 5.00122 25.3288 4.95618C25.6134 4.69813 26.1239 4.70883 26.3915 5.08488C26.6575 5.37356 26.6435 5.9002 26.2465 6.16489C25.9288 6.37672 25.5207 6.47441 25.1269 6.47441C24.6226 6.47441 24.0974 6.27398 23.7726 5.84589C23.1508 5.1135 23.2594 3.97978 23.9833 3.3593L24.0205 3.3274L24.067 3.3119C24.2295 3.25775 24.4189 3.23014 24.6 3.24407Z" fill="url(#paint13_linear_1253_37733)"/>
<defs>
<linearGradient id="paint0_linear_1253_37733" x1="-0.0175929" y1="28.0961" x2="31.5096" y2="6.07708" gradientUnits="userSpaceOnUse">
<stop stop-color="#01831D"/>
<stop offset="1" stop-color="#01CA0D"/>
</linearGradient>
<linearGradient id="paint1_linear_1253_37733" x1="-0.0175929" y1="28.0961" x2="31.5096" y2="6.07708" gradientUnits="userSpaceOnUse">
<stop stop-color="#01831D"/>
<stop offset="1" stop-color="#01CA0D"/>
</linearGradient>
<linearGradient id="paint2_linear_1253_37733" x1="-0.0175929" y1="28.0961" x2="31.5096" y2="6.07708" gradientUnits="userSpaceOnUse">
<stop stop-color="#01831D"/>
<stop offset="1" stop-color="#01CA0D"/>
</linearGradient>
<linearGradient id="paint3_linear_1253_37733" x1="-0.0175929" y1="28.0961" x2="31.5096" y2="6.07708" gradientUnits="userSpaceOnUse">
<stop stop-color="#01831D"/>
<stop offset="1" stop-color="#01CA0D"/>
</linearGradient>
<linearGradient id="paint4_linear_1253_37733" x1="-0.0175929" y1="28.0961" x2="31.5096" y2="6.07708" gradientUnits="userSpaceOnUse">
<stop stop-color="#01831D"/>
<stop offset="1" stop-color="#01CA0D"/>
</linearGradient>
<linearGradient id="paint5_linear_1253_37733" x1="-0.0175929" y1="28.0961" x2="31.5096" y2="6.07708" gradientUnits="userSpaceOnUse">
<stop stop-color="#01831D"/>
<stop offset="1" stop-color="#01CA0D"/>
</linearGradient>
<linearGradient id="paint6_linear_1253_37733" x1="-0.0175929" y1="28.0961" x2="31.5096" y2="6.07708" gradientUnits="userSpaceOnUse">
<stop stop-color="#01831D"/>
<stop offset="1" stop-color="#01CA0D"/>
</linearGradient>
<linearGradient id="paint7_linear_1253_37733" x1="-0.0175929" y1="28.0961" x2="31.5096" y2="6.07708" gradientUnits="userSpaceOnUse">
<stop stop-color="#01831D"/>
<stop offset="1" stop-color="#01CA0D"/>
</linearGradient>
<linearGradient id="paint8_linear_1253_37733" x1="-0.0175929" y1="28.0961" x2="31.5096" y2="6.07708" gradientUnits="userSpaceOnUse">
<stop stop-color="#01831D"/>
<stop offset="1" stop-color="#01CA0D"/>
</linearGradient>
<linearGradient id="paint9_linear_1253_37733" x1="-0.0175929" y1="28.0961" x2="31.5096" y2="6.07708" gradientUnits="userSpaceOnUse">
<stop stop-color="#01831D"/>
<stop offset="1" stop-color="#01CA0D"/>
</linearGradient>
<linearGradient id="paint10_linear_1253_37733" x1="-0.0175929" y1="28.0961" x2="31.5096" y2="6.07708" gradientUnits="userSpaceOnUse">
<stop stop-color="#01831D"/>
<stop offset="1" stop-color="#01CA0D"/>
</linearGradient>
<linearGradient id="paint11_linear_1253_37733" x1="-0.0175929" y1="28.0961" x2="31.5096" y2="6.07708" gradientUnits="userSpaceOnUse">
<stop stop-color="#01831D"/>
<stop offset="1" stop-color="#01CA0D"/>
</linearGradient>
<linearGradient id="paint12_linear_1253_37733" x1="-0.0175929" y1="28.0961" x2="31.5096" y2="6.07708" gradientUnits="userSpaceOnUse">
<stop stop-color="#01831D"/>
<stop offset="1" stop-color="#01CA0D"/>
</linearGradient>
<linearGradient id="paint13_linear_1253_37733" x1="-0.0175929" y1="28.0961" x2="31.5096" y2="6.07708" gradientUnits="userSpaceOnUse">
<stop stop-color="#01831D"/>
<stop offset="1" stop-color="#01CA0D"/>
</linearGradient>
</defs>
</svg>
