<svg width="36" height="41" viewBox="0 0 36 41" fill="none" xmlns="http://www.w3.org/2000/svg">
<path d="M32.4939 40.0155H3.50609C2.25391 40.0155 1.25217 39.0217 1.25217 37.8416V20.6988H2.81739V37.8416C2.81739 38.2143 3.06783 38.4627 3.50609 38.4627H32.4939C32.8696 38.4627 33.1826 38.2143 33.1826 37.8416V20.6988H34.7478V37.8416C34.7478 39.0839 33.7461 40.0155 32.4939 40.0155Z" fill="url(#paint0_linear_1910_43786)"/>
<path d="M33.7461 21.382H2.1913C0.93913 21.382 0 20.3882 0 19.2081V12.8106C0 11.5683 1.00174 10.5745 2.1913 10.5745H33.7461C34.9983 10.5745 36 11.5683 36 12.8106V19.2081C36 20.4503 34.9983 21.382 33.7461 21.382ZM2.1913 12.1273C1.81565 12.1273 1.56522 12.3758 1.56522 12.8106V19.2081C1.56522 19.5807 1.81565 19.8292 2.1913 19.8292H33.7461C34.1217 19.8292 34.4348 19.5807 34.4348 19.2081V12.8106C34.4348 12.4379 34.1843 12.1273 33.7461 12.1273H2.1913Z" fill="url(#paint1_linear_1910_43786)"/>
<path d="M19.0332 11.8789C18.4697 11.8789 17.9688 11.7547 17.5932 11.382C15.4645 9.27019 20.7236 2.12733 21.6001 1.25776C23.2906 -0.419255 26.0454 -0.419255 27.7358 1.25776C29.4262 2.93478 29.4262 5.72981 27.7358 7.40683C27.1097 8.09006 21.9758 11.8789 19.0332 11.8789ZM24.7306 1.56832C24.0419 1.56832 23.2906 1.81677 22.7897 2.37578C21.0367 4.11491 18.0941 9.58075 18.7828 10.264C19.4714 10.9472 24.981 8.02795 26.7341 6.28882C27.7984 5.23292 27.7984 3.43168 26.7341 2.37578C26.1706 1.81677 25.4193 1.56832 24.7306 1.56832Z" fill="url(#paint2_linear_1910_43786)"/>
<path d="M16.9043 11.941C14.0243 11.941 8.82783 8.15217 8.13913 7.40683C7.32522 6.59938 6.88696 5.48136 6.88696 4.36335C6.88696 3.18323 7.32522 2.12733 8.13913 1.38199C8.95304 0.574532 10.0174 0.139749 11.207 0.139749C12.3339 0.139749 13.4609 0.574532 14.2748 1.38199C15.5896 2.62422 18.8452 7.59317 18.8452 10.0155C18.8452 10.6366 18.6574 11.1335 18.3443 11.4441C17.9687 11.7547 17.4678 11.941 16.9043 11.941ZM9.20348 6.28882C10.9565 8.02795 16.4661 10.9472 17.1548 10.3261C17.8435 9.64286 14.8383 4.05279 13.0852 2.43789C12.5843 1.94099 11.833 1.63043 11.1443 1.63043C10.393 1.63043 9.70435 1.94099 9.20348 2.43789C8.70261 2.93478 8.38956 3.61801 8.38956 4.30124C8.38956 5.04658 8.70261 5.72981 9.20348 6.28882Z" fill="url(#paint3_linear_1910_43786)"/>
<path d="M19.033 39.2081H17.4678V13.3696C15.1512 14.6739 14.4625 16.5994 14.3999 16.6615L12.9599 16.1646C13.0225 16.0404 14.0869 12.9348 17.9686 11.382L19.033 10.9472V39.2081Z" fill="url(#paint4_linear_1910_43786)"/>
<path d="M24.3549 18.6491C18.908 17.8416 17.3428 12.6242 17.2801 12.3758L18.7828 11.941C18.8454 12.1273 20.1601 16.413 24.6054 17.0963L24.3549 18.6491Z" fill="url(#paint5_linear_1910_43786)"/>
<defs>
<linearGradient id="paint0_linear_1910_43786" x1="4.07299" y1="40.0155" x2="36" y2="8" gradientUnits="userSpaceOnUse">
<stop stop-color="#96145E"/>
<stop offset="1" stop-color="#EE4587"/>
</linearGradient>
<linearGradient id="paint1_linear_1910_43786" x1="4.07299" y1="40.0155" x2="36" y2="8" gradientUnits="userSpaceOnUse">
<stop stop-color="#96145E"/>
<stop offset="1" stop-color="#EE4587"/>
</linearGradient>
<linearGradient id="paint2_linear_1910_43786" x1="4.07299" y1="40.0155" x2="36" y2="8" gradientUnits="userSpaceOnUse">
<stop stop-color="#96145E"/>
<stop offset="1" stop-color="#EE4587"/>
</linearGradient>
<linearGradient id="paint3_linear_1910_43786" x1="4.07299" y1="40.0155" x2="36" y2="8" gradientUnits="userSpaceOnUse">
<stop stop-color="#96145E"/>
<stop offset="1" stop-color="#EE4587"/>
</linearGradient>
<linearGradient id="paint4_linear_1910_43786" x1="4.07299" y1="40.0155" x2="36" y2="8" gradientUnits="userSpaceOnUse">
<stop stop-color="#96145E"/>
<stop offset="1" stop-color="#EE4587"/>
</linearGradient>
<linearGradient id="paint5_linear_1910_43786" x1="4.07299" y1="40.0155" x2="36" y2="8" gradientUnits="userSpaceOnUse">
<stop stop-color="#96145E"/>
<stop offset="1" stop-color="#EE4587"/>
</linearGradient>
</defs>
</svg>
