<svg width="40" height="40" viewBox="0 0 40 40" fill="none" xmlns="http://www.w3.org/2000/svg">
<path d="M2.85554 24.5868C2.99044 25.0815 2.81057 25.8572 2.64193 26.5992C2.38336 27.7122 2.09106 28.9713 2.6869 29.9831C3.28274 31.0174 4.53063 31.3997 5.63238 31.7257C6.35188 31.9505 7.10511 32.1754 7.45362 32.5239C7.80213 32.8724 8.03822 33.6256 8.25183 34.3451C8.58909 35.4469 8.96009 36.6948 9.99438 37.2906C10.3991 37.5267 10.8713 37.6391 11.4221 37.6391C12.063 37.6391 12.7375 37.4817 13.3783 37.3356C13.9629 37.2007 14.5138 37.077 14.9859 37.077C15.1433 37.077 15.2782 37.0882 15.4019 37.122C15.8628 37.2456 16.425 37.774 16.9646 38.2799C17.8078 39.0781 18.7746 39.9775 20 39.9775C21.2254 39.9775 22.181 39.0781 23.0354 38.2799C23.575 37.774 24.1372 37.2456 24.5981 37.122C24.7105 37.0882 24.8567 37.077 25.0141 37.077C25.475 37.077 26.0371 37.2007 26.6217 37.3356C27.2737 37.4817 27.937 37.6391 28.5779 37.6391C29.14 37.6391 29.6009 37.5267 30.0056 37.2906C31.0399 36.6948 31.4221 35.4469 31.7482 34.3451C31.973 33.6256 32.1979 32.8724 32.5464 32.5239C32.8949 32.1754 33.6481 31.9393 34.3676 31.7257C35.4694 31.3884 36.7173 31.0174 37.3131 29.9831C37.9089 28.9601 37.6166 27.701 37.3581 26.5992C37.1894 25.8572 37.0096 25.0815 37.1445 24.5868C37.2681 24.1259 37.7965 23.5638 38.3024 23.0242C39.1006 22.181 40 21.2142 40 19.9888C40 18.7633 39.1006 17.8078 38.3024 16.9533C37.7965 16.4137 37.2681 15.8516 37.1445 15.3907C37.0096 14.896 37.1894 14.1203 37.3581 13.3783C37.6166 12.2653 37.9089 11.0062 37.3131 9.99438C36.7173 8.96009 35.4694 8.57785 34.3676 8.25182C33.6481 8.02698 32.8949 7.80214 32.5464 7.45363C32.1979 7.10511 31.9618 6.35188 31.7482 5.63238C31.4109 4.53063 31.0399 3.28274 30.0056 2.6869C29.6009 2.45081 29.1287 2.33839 28.5779 2.33839C27.937 2.33839 27.2625 2.49578 26.6217 2.64193C26.0371 2.77684 25.4862 2.9005 25.0141 2.9005C24.8567 2.9005 24.7218 2.88926 24.5981 2.85553C24.1372 2.73187 23.575 2.20348 23.0354 1.69758C22.1922 0.899379 21.2254 1.07129e-07 20 0C18.7746 -1.07129e-07 17.819 0.899379 16.9646 1.69758C16.425 2.20348 15.8628 2.73187 15.4019 2.85553C15.2895 2.88926 15.1433 2.9005 14.9859 2.9005C14.525 2.9005 13.9629 2.77684 13.3783 2.64193C12.7263 2.49578 12.063 2.33839 11.4221 2.33839C10.86 2.33839 10.3991 2.45081 9.99438 2.6869C8.96009 3.28274 8.57785 4.53063 8.25183 5.63237C8.02698 6.35188 7.80214 7.10511 7.45363 7.45362C7.10512 7.80213 6.35188 8.03822 5.63238 8.25182C4.53064 8.58909 3.28274 8.96008 2.6869 9.99437C2.09106 11.0174 2.38336 12.2766 2.64193 13.3783C2.81057 14.1203 2.99044 14.896 2.85554 15.3907C2.73187 15.8516 2.20349 16.4137 1.69758 16.9533C0.899383 17.7965 1.07129e-07 18.7633 0 19.9888C-1.07129e-07 21.2142 0.899382 22.1698 1.69758 23.0242C2.20349 23.5638 2.73187 24.1259 2.85554 24.5868ZM2.93423 18.1113C3.58629 17.4143 4.24958 16.706 4.48567 15.8291C4.733 14.9185 4.49691 13.9404 4.28331 12.9961C4.09219 12.1529 3.88983 11.276 4.1484 10.8263C4.41821 10.3654 5.28387 10.1068 6.12704 9.84822C7.0489 9.56717 8.0045 9.27487 8.65655 8.62282C9.3086 7.97076 9.6009 7.01517 9.88196 6.0933C10.1405 5.25013 10.3991 4.38448 10.86 4.11467C11.0062 4.03597 11.1973 3.99101 11.4446 3.99101C11.8943 3.99101 12.4452 4.11467 13.0298 4.24958C13.6818 4.39573 14.3564 4.55312 15.0084 4.55312C15.3232 4.55312 15.593 4.51939 15.8516 4.45194C16.7285 4.21585 17.4368 3.55256 18.1338 2.9005C18.7858 2.29342 19.4604 1.66385 20.0112 1.66385C20.5621 1.66385 21.2367 2.29342 21.8887 2.9005C22.5857 3.55256 23.294 4.21585 24.1709 4.45194C24.4295 4.51939 24.7105 4.55312 25.0141 4.55312C25.6661 4.55312 26.3406 4.39573 26.9927 4.24958C27.5773 4.11467 28.1169 3.99101 28.5779 3.99101C28.8252 3.99101 29.0163 4.03597 29.1625 4.11467C29.6234 4.38448 29.882 5.25014 30.1405 6.09331C30.4216 7.01517 30.7139 7.97077 31.3659 8.62282C32.018 9.27487 32.9736 9.56717 33.8954 9.84823C34.7386 10.1068 35.6043 10.3654 35.8741 10.8263C36.1327 11.276 35.9303 12.1416 35.7392 12.9961C35.5256 13.9404 35.2895 14.9185 35.5368 15.8291C35.7729 16.706 36.4362 17.4143 37.0883 18.1113C37.6953 18.7633 38.3249 19.4379 38.3249 19.9888C38.3249 20.5509 37.6953 21.2142 37.0882 21.8662C36.4362 22.5632 35.7729 23.2715 35.5368 24.1484C35.2895 25.059 35.5256 26.0371 35.7392 26.9814C35.9303 27.8246 36.1327 28.7015 35.8741 29.1512C35.6043 29.6121 34.7386 29.8707 33.8954 30.1293C32.9736 30.4103 32.018 30.7026 31.3659 31.3547C30.7139 32.0067 30.4216 32.9623 30.1405 33.8842C29.882 34.7274 29.6234 35.593 29.1624 35.8628C29.0163 35.9415 28.8252 35.9865 28.5779 35.9865C28.1282 35.9865 27.5773 35.8628 26.9927 35.7279C26.3406 35.5818 25.6661 35.4244 25.0141 35.4244C24.6993 35.4244 24.4295 35.4581 24.1709 35.5256C23.294 35.7617 22.5857 36.425 21.8887 37.077C21.2366 37.6841 20.5621 38.3137 20.0112 38.3137C19.4604 38.3137 18.7858 37.6841 18.1338 37.077C17.4368 36.425 16.7285 35.7617 15.8516 35.5256C15.593 35.4581 15.312 35.4244 15.0084 35.4244C14.3564 35.4244 13.6818 35.5818 13.0298 35.7279C12.4452 35.8628 11.9056 35.9865 11.4446 35.9865C11.1973 35.9865 11.0062 35.9415 10.86 35.8628C10.3991 35.593 10.1405 34.7274 9.88195 33.8842C9.6009 32.9623 9.3086 32.0067 8.65655 31.3547C8.0045 30.7026 7.0489 30.4103 6.12704 30.1293C5.28387 29.8707 4.41821 29.6121 4.1484 29.1512C3.88982 28.7015 4.09219 27.8359 4.28331 26.9814C4.49691 26.0371 4.733 25.059 4.48567 24.1484C4.24958 23.2715 3.58629 22.5632 2.93423 21.8662C2.32715 21.2142 1.69758 20.5396 1.69758 19.9888C1.68634 19.4266 2.31591 18.7633 2.93423 18.1113Z" fill="url(#paint0_linear_1910_43775)"/>
<path d="M26.4195 22.3946C24.2048 22.3946 22.4172 24.1934 22.4172 26.3968C22.4172 28.6116 24.216 30.3991 26.4195 30.3991C28.6342 30.3991 30.4217 28.6003 30.4217 26.3968C30.4217 24.1934 28.623 22.3946 26.4195 22.3946ZM26.4195 28.724C25.1379 28.724 24.1036 27.6785 24.1036 26.4081C24.1036 25.1265 25.1491 24.0922 26.4195 24.0922C27.6899 24.0922 28.7354 25.1377 28.7354 26.4081C28.7354 27.6785 27.6899 28.724 26.4195 28.724Z" fill="url(#paint1_linear_1910_43775)"/>
<path d="M13.5806 17.5829C15.7953 17.5829 17.5829 15.7841 17.5829 13.5806C17.5829 11.3659 15.7841 9.57839 13.5806 9.57839C11.3659 9.57839 9.57837 11.3772 9.57837 13.5806C9.57837 15.7841 11.3771 17.5829 13.5806 17.5829ZM13.5806 11.2535C14.8622 11.2535 15.8965 12.299 15.8965 13.5694C15.8965 14.8398 14.851 15.8853 13.5806 15.8853C12.3102 15.8853 11.2647 14.8398 11.2647 13.5694C11.2647 12.299 12.3102 11.2535 13.5806 11.2535Z" fill="url(#paint2_linear_1910_43775)"/>
<path d="M10.6687 29.3198C10.9947 29.6458 11.5344 29.6458 11.8604 29.3198L29.3309 11.8606C29.6569 11.5346 29.6569 10.9949 29.3309 10.6689C29.1622 10.5003 28.9486 10.4216 28.735 10.4216C28.5214 10.4216 28.3078 10.5003 28.1392 10.6689L10.6687 28.1169C10.3427 28.4542 10.3427 28.9825 10.6687 29.3198Z" fill="url(#paint3_linear_1910_43775)"/>
<defs>
<linearGradient id="paint0_linear_1910_43775" x1="5" y1="34" x2="31" y2="5" gradientUnits="userSpaceOnUse">
<stop stop-color="#DC5503"/>
<stop offset="1" stop-color="#FCA916"/>
</linearGradient>
<linearGradient id="paint1_linear_1910_43775" x1="5" y1="34" x2="31" y2="5" gradientUnits="userSpaceOnUse">
<stop stop-color="#DC5503"/>
<stop offset="1" stop-color="#FCA916"/>
</linearGradient>
<linearGradient id="paint2_linear_1910_43775" x1="5" y1="34" x2="31" y2="5" gradientUnits="userSpaceOnUse">
<stop stop-color="#DC5503"/>
<stop offset="1" stop-color="#FCA916"/>
</linearGradient>
<linearGradient id="paint3_linear_1910_43775" x1="5" y1="34" x2="31" y2="5" gradientUnits="userSpaceOnUse">
<stop stop-color="#DC5503"/>
<stop offset="1" stop-color="#FCA916"/>
</linearGradient>
</defs>
</svg>
